<svg width="95" height="21" viewBox="0 0 95 21" fill="none" xmlns="http://www.w3.org/2000/svg">
<path d="M20.0003 3.73083L17.9835 6.82332C15.7986 5.31069 13.5801 4.70564 10.622 4.70564C6.99171 4.70564 6.11775 5.64683 6.11775 6.68886C6.11775 7.76451 7.09255 8.03342 8.53795 8.20149L14.1179 8.84016C18.0843 9.31075 20.5381 10.9915 20.5381 14.4201C20.5381 18.5882 16.4709 20.4706 10.8909 20.4706C7.09255 20.4706 4.23536 19.6639 1.27733 17.479L3.26056 14.2184C5.81522 15.9999 8.30266 16.8067 11.3615 16.8067C14.3196 16.8067 16.4709 16.0672 16.4709 14.4873C16.4709 13.4789 15.933 12.9747 14.3532 12.8066L8.10097 12.1007C4.30259 11.6637 1.98323 10.1847 1.98323 6.72247C1.98323 2.78964 5.88245 0.974482 10.622 0.974482C14.0843 0.974482 17.1095 1.57953 20.0003 3.73083ZM23.3749 1.41146H27.5766V10.9242C27.5766 14.5545 29.2237 16.7731 32.8876 16.7731C36.5515 16.7731 38.1986 14.5545 38.1986 10.9242V1.41146H42.4004V10.8906C42.4004 17.042 38.7028 20.4706 32.8876 20.4706C27.0724 20.4706 23.3749 17.042 23.3749 10.8906V1.41146Z" fill="white"/>
<circle cx="46.5" cy="11.5" r="2.5" fill="#C8AE30"/>
<path d="M50.6807 1.41146H54.6472L65.7734 13.9159V1.41146H69.9415V20H65.9414L54.8152 7.46198V20H50.6807V1.41146ZM77.2308 10.7225C77.2308 14.5545 79.9535 16.8739 83.4493 16.8739C86.9452 16.8739 89.6679 14.5545 89.6679 10.7225C89.6679 6.89054 86.9452 4.57118 83.4493 4.57118C79.9535 4.57118 77.2308 6.89054 77.2308 10.7225ZM93.8697 10.7225C93.8697 16.5714 89.0965 20.4706 83.4493 20.4706C77.8022 20.4706 73.029 16.5714 73.029 10.7225C73.029 4.87371 77.8022 0.974482 83.4493 0.974482C89.0965 0.974482 93.8697 4.87371 93.8697 10.7225Z" fill="white"/>
</svg>
