<svg width="23" height="23" viewBox="0 0 23 23" fill="none" xmlns="http://www.w3.org/2000/svg">
<path fill-rule="evenodd" clip-rule="evenodd" d="M16.6667 0C18.1401 0 19.5532 0.585316 20.595 1.62718C21.6369 2.66905 22.2222 4.08213 22.2222 5.55556V16.6667C22.2222 18.1401 21.6369 19.5532 20.595 20.595C19.5532 21.6369 18.1401 22.2222 16.6667 22.2222H5.55556C4.08213 22.2222 2.66905 21.6369 1.62718 20.595C0.585316 19.5532 0 18.1401 0 16.6667V5.55556C0 4.08213 0.585316 2.66905 1.62718 1.62718C2.66905 0.585316 4.08213 0 5.55556 0H16.6667ZM6.25 13.8889C5.97641 13.8889 5.7055 13.9428 5.45274 14.0475C5.19998 14.1522 4.97032 14.3056 4.77686 14.4991C4.58341 14.6925 4.42995 14.9222 4.32525 15.175C4.22055 15.4277 4.16667 15.6986 4.16667 15.9722C4.16667 16.2458 4.22055 16.5167 4.32525 16.7695C4.42995 17.0222 4.58341 17.2519 4.77686 17.4454C4.97032 17.6388 5.19998 17.7923 5.45274 17.897C5.7055 18.0017 5.97641 18.0556 6.25 18.0556C6.80253 18.0556 7.33244 17.8361 7.72314 17.4454C8.11384 17.0547 8.33333 16.5248 8.33333 15.9722C8.33333 15.4197 8.11384 14.8898 7.72314 14.4991C7.33244 14.1084 6.80253 13.8889 6.25 13.8889ZM11.1111 9.02778C10.8375 9.02778 10.5666 9.08166 10.3139 9.18636C10.0611 9.29106 9.83143 9.44452 9.63797 9.63797C9.44452 9.83143 9.29106 10.0611 9.18636 10.3139C9.08166 10.5666 9.02778 10.8375 9.02778 11.1111C9.02778 11.3847 9.08166 11.6556 9.18636 11.9084C9.29106 12.1611 9.44452 12.3908 9.63797 12.5843C9.83143 12.7777 10.0611 12.9312 10.3139 13.0359C10.5666 13.1406 10.8375 13.1944 11.1111 13.1944C11.6636 13.1944 12.1935 12.9749 12.5842 12.5842C12.9749 12.1935 13.1944 11.6636 13.1944 11.1111C13.1944 10.5586 12.9749 10.0287 12.5842 9.63797C12.1935 9.24727 11.6636 9.02778 11.1111 9.02778ZM15.9722 4.16667C15.4197 4.16667 14.8898 4.38616 14.4991 4.77686C14.1084 5.16756 13.8889 5.69747 13.8889 6.25C13.8889 6.80253 14.1084 7.33244 14.4991 7.72314C14.8898 8.11384 15.4197 8.33333 15.9722 8.33333C16.5248 8.33333 17.0547 8.11384 17.4454 7.72314C17.8361 7.33244 18.0556 6.80253 18.0556 6.25C18.0556 5.69747 17.8361 5.16756 17.4454 4.77686C17.0547 4.38616 16.5248 4.16667 15.9722 4.16667Z" fill="white"/>
</svg>
