<svg width="18" height="18" viewBox="0 0 18 18" fill="none" xmlns="http://www.w3.org/2000/svg">
<path d="M8.88889 0C8.18778 0 7.61889 0.568889 7.61889 1.27V7.61889H1.27C0.933175 7.61889 0.610145 7.75269 0.371974 7.99086C0.133803 8.22903 0 8.55206 0 8.88889C0 9.22571 0.133803 9.54874 0.371974 9.78691C0.610145 10.0251 0.933175 10.1589 1.27 10.1589H7.61889V16.5078C7.61889 16.8446 7.75269 17.1676 7.99086 17.4058C8.22903 17.644 8.55206 17.7778 8.88889 17.7778C9.22571 17.7778 9.54874 17.644 9.78691 17.4058C10.0251 17.1676 10.1589 16.8446 10.1589 16.5078V10.1589H16.5078C16.8446 10.1589 17.1676 10.0251 17.4058 9.78691C17.644 9.54874 17.7778 9.22571 17.7778 8.88889C17.7778 8.55206 17.644 8.22903 17.4058 7.99086C17.1676 7.75269 16.8446 7.61889 16.5078 7.61889H10.1589V1.27C10.1589 0.568889 9.58889 0 8.88889 0Z" fill="white"/>
</svg>
