<svg width="20" height="18" viewBox="0 0 20 18" fill="none" xmlns="http://www.w3.org/2000/svg">
<path d="M3.33405 17.7803C3.18714 17.7838 3.04108 17.7572 2.90482 17.7022C2.76857 17.6471 2.64501 17.5648 2.54173 17.4603C2.43753 17.357 2.3555 17.2336 2.30067 17.0976C2.24583 16.9615 2.21933 16.8157 2.2228 16.6691V10.0016H1.11155C0.96491 10.0051 0.819101 9.97856 0.683054 9.92372C0.547007 9.86888 0.423585 9.78685 0.320342 9.68265C0.215806 9.57937 0.133491 9.45581 0.078455 9.31956C0.0234185 9.1833 -0.00317703 9.03724 0.000302188 8.89033C0.000302188 8.57622 0.106982 8.31211 0.320342 8.09801C0.423585 7.99381 0.547007 7.91178 0.683054 7.85694C0.819101 7.8021 0.96491 7.77561 1.11155 7.77908H5.55655C5.87067 7.77908 6.13477 7.88539 6.34887 8.09801C6.56149 8.31211 6.6678 8.57622 6.6678 8.89033C6.6678 9.20444 6.56149 9.46855 6.34887 9.68265C6.2455 9.78699 6.1219 9.86909 5.98565 9.92394C5.8494 9.97878 5.70338 10.0052 5.55655 10.0016H4.4453V16.6691C4.4453 16.9832 4.33899 17.2469 4.12637 17.4603C4.0231 17.5648 3.89953 17.6471 3.76328 17.7022C3.62703 17.7572 3.48096 17.7838 3.33405 17.7803ZM3.33405 5.55658C3.18722 5.5602 3.0412 5.53378 2.90496 5.47894C2.76871 5.42409 2.6451 5.34199 2.54173 5.23765C2.4374 5.13428 2.35529 5.01067 2.30044 4.87442C2.2456 4.73818 2.21918 4.59216 2.2228 4.44533V1.11158C2.2228 0.797465 2.32911 0.533358 2.54173 0.319257C2.6451 0.214922 2.76871 0.132812 2.90496 0.0779685C3.0412 0.023125 3.18722 -0.00329556 3.33405 0.000328156C3.64817 0.000328156 3.91227 0.106638 4.12637 0.319257C4.33899 0.533358 4.4453 0.797465 4.4453 1.11158V4.44533C4.4453 4.75944 4.33899 5.02355 4.12637 5.23765C4.023 5.34199 3.8994 5.42409 3.76315 5.47894C3.6269 5.53378 3.48088 5.5602 3.33405 5.55658ZM7.77905 5.55658C7.63222 5.5602 7.4862 5.53378 7.34996 5.47894C7.21371 5.42409 7.0901 5.34199 6.98673 5.23765C6.8824 5.13428 6.80029 5.01067 6.74544 4.87442C6.6906 4.73818 6.66418 4.59216 6.6678 4.44533C6.6678 4.13121 6.77411 3.86711 6.98673 3.65301C7.0901 3.54867 7.21371 3.46656 7.34996 3.41172C7.4862 3.35688 7.63222 3.33045 7.77905 3.33408H8.8903V1.11158C8.8903 0.797465 8.99661 0.533358 9.20923 0.319257C9.3126 0.214922 9.43621 0.132812 9.57246 0.0779685C9.7087 0.023125 9.85472 -0.00329556 10.0016 0.000328156C10.3157 0.000328156 10.5798 0.106638 10.7939 0.319257C11.0065 0.533358 11.1128 0.797465 11.1128 1.11158V3.33408H12.2241C12.5382 3.33408 12.8023 3.44039 13.0164 3.65301C13.229 3.86711 13.3353 4.13121 13.3353 4.44533C13.3353 4.75944 13.229 5.02355 13.0164 5.23765C12.913 5.34199 12.7894 5.42409 12.6531 5.47894C12.5169 5.53378 12.3709 5.5602 12.2241 5.55658H7.77905ZM10.0016 17.7803C9.85464 17.7838 9.70858 17.7572 9.57232 17.7022C9.43607 17.6471 9.31251 17.5648 9.20923 17.4603C9.10503 17.357 9.023 17.2336 8.96816 17.0976C8.91333 16.9615 8.88683 16.8157 8.8903 16.6691V8.89033C8.8903 8.57622 8.99661 8.31211 9.20923 8.09801C9.3126 7.99367 9.43621 7.91156 9.57246 7.85672C9.7087 7.80188 9.85472 7.77545 10.0016 7.77908C10.3157 7.77908 10.5798 7.88539 10.7939 8.09801C11.0065 8.31137 11.1128 8.57547 11.1128 8.89033V16.6691C11.1128 16.9832 11.0065 17.2469 10.7939 17.4603C10.6906 17.5648 10.567 17.6471 10.4308 17.7022C10.2945 17.7572 10.1485 17.7838 10.0016 17.7803ZM16.6691 17.7803C16.5223 17.7837 16.3765 17.757 16.2404 17.702C16.1044 17.6469 15.981 17.5647 15.8778 17.4603C15.7734 17.3571 15.6912 17.2338 15.6362 17.0977C15.5811 16.9617 15.5545 16.8158 15.5578 16.6691V14.4466H14.4466C14.2996 14.4501 14.1536 14.4235 14.0173 14.3684C13.8811 14.3134 13.7575 14.2311 13.6542 14.1265C13.55 14.0233 13.468 13.8999 13.4132 13.7638C13.3583 13.6278 13.3318 13.482 13.3353 13.3353C13.3353 13.0212 13.4416 12.7571 13.6542 12.543C13.7576 12.4387 13.8812 12.3566 14.0175 12.3017C14.1537 12.2469 14.2997 12.2205 14.4466 12.2241H18.8916C19.2057 12.2241 19.4694 12.3304 19.6828 12.543C19.8961 12.7564 20.0028 13.0205 20.0028 13.3353C20.0028 13.6494 19.8961 13.9132 19.6828 14.1265C19.5796 14.2309 19.4562 14.3132 19.3202 14.3682C19.1841 14.4232 19.0383 14.4499 18.8916 14.4466H17.7803V16.6691C17.7803 16.9832 17.6736 17.2469 17.4603 17.4603C17.3571 17.5647 17.2337 17.6469 17.0977 17.702C16.9616 17.757 16.8158 17.7837 16.6691 17.7803ZM16.6691 10.0016C16.5224 10.0051 16.3766 9.97856 16.2406 9.92372C16.1045 9.86888 15.9811 9.78685 15.8778 9.68265C15.7733 9.57937 15.691 9.45581 15.636 9.31956C15.5809 9.1833 15.5543 9.03724 15.5578 8.89033V1.11158C15.5578 0.797465 15.6645 0.533358 15.8778 0.319257C15.9811 0.21506 16.1045 0.13303 16.2406 0.0781911C16.3766 0.0233519 16.5224 -0.00314321 16.6691 0.000328156C16.9832 0.000328156 17.2469 0.106638 17.4603 0.319257C17.6736 0.533358 17.7803 0.797465 17.7803 1.11158V8.89033C17.7803 9.20444 17.6736 9.46855 17.4603 9.68265C17.357 9.78685 17.2336 9.86888 17.0975 9.92372C16.9615 9.97856 16.8157 10.0051 16.6691 10.0016Z" fill="white"/>
</svg>
