<svg width="20" height="20" viewBox="0 0 20 20" fill="none" xmlns="http://www.w3.org/2000/svg">
<path d="M14.9595 4.20561C15.1731 4.20659 15.3777 4.29188 15.5287 4.44292C15.6798 4.59396 15.7651 4.79853 15.766 5.01213L15.766 12.6208C15.7699 12.7291 15.7518 12.8371 15.713 12.9383C15.6742 13.0395 15.6154 13.1318 15.5402 13.2098C15.4649 13.2878 15.3747 13.3498 15.2749 13.3921C15.1752 13.4345 15.0679 13.4563 14.9595 13.4563C14.8511 13.4563 14.7439 13.4345 14.6441 13.3921C14.5444 13.3498 14.4542 13.2878 14.3789 13.2098C14.3036 13.1318 14.2448 13.0395 14.206 12.9383C14.1672 12.8371 14.1492 12.7291 14.153 12.6208L14.153 6.95996L6.39974 14.7132C6.24839 14.8646 6.04312 14.9496 5.82909 14.9496C5.61505 14.9496 5.40978 14.8646 5.25843 14.7132C5.10709 14.5619 5.02206 14.3566 5.02206 14.1426C5.02206 13.9285 5.10709 13.7233 5.25843 13.5719L13.0117 5.81865L7.35083 5.81865C7.14185 5.81128 6.94389 5.72307 6.79866 5.57263C6.65343 5.42218 6.57227 5.22124 6.57227 5.01213C6.57227 4.80303 6.65344 4.60208 6.79866 4.45164C6.94389 4.30119 7.14185 4.21299 7.35082 4.20561L14.9595 4.20561Z" fill="#1A1A20"/>
</svg>
